# AST/ASF file generated using VICON BodyLanguage
# -----------------------------------------------
:version 1.10
:name VICON
:units
  mass 1.0
  length 0.45
  angle deg
:documentation
   .ast/.asf automatically generated from VICON data using
   VICON BodyBuilder and BodyLanguage model FoxedUp or BRILLIANT.MOD
:root
   order TX TY TZ RX RY RZ
   axis XYZ
   position 0 0 0  
   orientation 0 0 0 
:bonedata
  begin
     id 1 
     name lhipjoint
     direction 0.612567 -0.751349 0.245431 
     length 2.42285 
     axis 0 0 0  XYZ
  end
  begin
     id 2 
     name lfemur
     direction 0.34202 -0.939693 0  
     length 7.11304  
     axis 0 0 20  XYZ
    dof rx ry rz
    limits (-160.0 20.0)
           (-70.0 70.0)
           (-60.0 70.0)
  end
  begin
     id 3 
     name ltibia
     direction 0.34202 -0.939693 0   
     length 7.84529   
     axis 0 0 20   XYZ
    dof rx
    limits (-10.0 170.0)
  end
  begin
     id 4 
     name lfoot
     direction 0.0779239 -0.214094 0.9737   
     length 1.97176   
     axis -90 7.62852e-016 20   XYZ
    dof rx rz
    limits (-45.0 90.0)
           (-70.0 20.0)
  end
  begin
     id 5 
     name ltoes
     direction 1.53565e-011 -4.21709e-011 1   
     length 0.993197   
     axis -90 7.62852e-016 20   XYZ
    dof rx
    limits (-90.0 20.0)
  end
  begin
     id 6 
     name rhipjoint
     direction -0.665722 -0.709315 0.231701   
     length 2.56642  
     axis 0 0 0  XYZ 
  end
  begin
     id 7 
     name rfemur
     direction -0.34202 -0.939693 0   
     length 7.32108   
     axis 0 0 -20   XYZ
    dof rx ry rz
    limits (-160.0 20.0)
           (-70.0 70.0)
           (-70.0 60.0)
  end
  begin
     id 8 
     name rtibia
     direction -0.34202 -0.939693 0   
     length 7.81254   
     axis 0 0 -20   XYZ
    dof rx
    limits (-10.0 170.0)
 end
 begin
     id 9 
     name rfoot
     direction -0.0832806 -0.228812 0.969902   
     length 2.08278  
     axis -90 -7.62852e-016 -20   XYZ
    dof rx rz
    limits (-45.0 90.0)
           (-20.0 70.0)
  end
  begin
     id 10 
     name rtoes
     direction -1.53589e-011 -4.22086e-011 1   
     length 1.04609   
     axis -90 -7.62852e-016 -20   XYZ
    dof rx
    limits (-90.0 20.0)
  end
  begin
     id 11 
     name lowerback
     direction -0.00506013 0.988403 -0.151766   
     length 2.01978   
     axis 0 0 0   XYZ
    dof rx ry rz
    limits (-20.0 45.0)
           (-30.0 30.0)
           (-30.0 30.0)
  end
  begin
     id 12 
     name upperback
     direction -0.00836389 0.99968 0.0238859   
     length 2.01276   
     axis 0 0 0   XYZ
    dof rx ry rz
    limits (-20.0 45.0)
           (-30.0 30.0)
           (-30.0 30.0)
  end
  begin
     id 13 
     name thorax
     direction -0.00684136 0.995386 0.0957043   
     length 2.07303   
     axis 0 0 0   XYZ
    dof rx ry rz
    limits (-20.0 45.0)
           (-30.0 30.0)
           (-30.0 30.0)
  end
  begin
     id 14 
     name lowerneck
     direction -0.0161045 0.999661 0.0204485   
     length 1.91243   
     axis 0 0 0   XYZ
    dof rx ry rz
    limits (-20.0 45.0)
           (-30.0 30.0)
           (-30.0 30.0)
  end
  begin
     id 15 
     name upperneck
     direction 0.0553583 0.990946 -0.122319   
     length 1.91574   
     axis 0 0 0   XYZ
    dof rx ry rz
    limits (-20.0 45.0)
           (-30.0 30.0)
           (-30.0 30.0)
  end
  begin
     id 16
     name head
     direction 0.0180273 0.998839 -0.0446756  
     length 1.92693  
     axis 0 0 0   XYZ
    dof rx ry rz
    limits (-20.0 45.0)
           (-30.0 30.0)
           (-30.0 30.0)
  end
  begin
     id 17 
     name lclavicle
     direction 0.945646 0.319323 -0.0615358  
     length 4.0076  
     axis 0 0 0   XYZ
    dof ry rz
    limits (-20.0 10.0)
           (0.0 20.0)
  end
  begin
     id 18 
     name lhumerus
     direction 1 -4.48967e-011 -2.79996e-027   
     length 5.64147   
     axis 180 -30 -90   XYZ
    dof rx ry rz
    limits (-60.0 90.0)
           (-90.0 90.0)
           (-90.0 90.0)
  end
  begin
     id 19
     name lradius
     direction 1 -4.48976e-011 -9.5122e-027   
     length 2.86444   
     axis 180 -30 -90   XYZ
    dof rx
    limits (-10.0 170.0)
  end
  begin
     id 20
     name lwrist
     direction 1 -4.48983e-011 -1.24047e-026   
     length 1.43222   
     axis 9.05591e-015 90 90   XYZ
    dof ry
    limits (-180.0 0.0)
 end
  begin
     id 21 
     name lhand
     direction 1 -4.4892e-011 -2.48094e-026   
     length 0.722123   
     axis 1.58305e-014 90 90   XYZ
    dof rx rz
    limits (-90.0 90.0)
           (-45.0 45.0)
  end
  begin
     id 22 
     name lfingers
     direction 1 -4.48895e-011 -4.96187e-026   
     length 0.582194   
     axis 3.1661e-014 90 90   XYZ
    dof rx
    limits (0.0 90.0)
  end
  begin
     id 23
     name lthumb
     direction 0.707107 -6.34961e-011 0.707107   
     length 0.835918   
     axis -90 45 2.85299e-015   XYZ
    dof rx rz
    limits (-45.0 45.0)
           (-45.0 45.0)
  end
  begin
     id 24 
     name rclavicle
     direction -0.932635 0.324218 -0.15835   
     length 3.65819  
     axis 0 0 0   XYZ 
    dof ry rz
    limits (-10.0 20.0)
           (-20.0 0.0)
  end
  begin
     id 25 
     name rhumerus
     direction -1 -4.48965e-011 -4.02296e-027  
     length 5.44729   
     axis 180 30 90   XYZ
    dof rx ry rz
    limits (-90.0 60.0)
           (-90.0 90.0)
           (-90.0 90.0)
  end
  begin
     id 26 
     name rradius
     direction -1 -4.48957e-011 -8.81087e-027   
     length 3.08821   
     axis 180 30 90   XYZ
    dof rx
    limits (-10.0 170.0)
  end
  begin
     id 27 
     name rwrist
     direction -1 -4.49015e-011 -1.24047e-026   
     length 1.5441   
     axis 9.05591e-015 -90 -90   XYZ
    dof ry
    limits (-180.0 0.0)
  end
  begin
     id 28
     name rhand
     direction -1 -4.4891e-011 -2.48094e-026   
     length 0.821049   
     axis 1.58305e-014 -90 -90   XYZ
    dof rx rz
    limits (-90.0 90.0)
           (-45.0 45.0)
  end
  begin
     id 29
     name rfingers
     direction -1 -4.48985e-011 -4.96187e-026   
     length 0.661951   
     axis 3.1661e-014 -90 -90   XYZ
    dof rx
    limits (0.0 90.0)
  end
  begin
     id 30
     name rthumb
     direction -0.707107 -6.34906e-011 0.707107   
     length 0.950433   
     axis -90 -45 -2.85299e-015   XYZ
    dof rx rz
    limits (-45.0 45.0)
           (-45.0 45.0)
  end
:hierarchy
  begin
    root lhipjoint rhipjoint lowerback
    lhipjoint lfemur
    lfemur ltibia
    ltibia lfoot
    lfoot ltoes
    rhipjoint rfemur
    rfemur rtibia
    rtibia rfoot
    rfoot rtoes
    lowerback upperback
    upperback thorax
    thorax lowerneck lclavicle rclavicle
    lowerneck upperneck
    upperneck head
    lclavicle lhumerus
    lhumerus lradius
    lradius lwrist
    lwrist lhand lthumb
    lhand lfingers
    rclavicle rhumerus
    rhumerus rradius
    rradius rwrist
    rwrist rhand rthumb
    rhand rfingers
  end

#!OML:ASF F:\VICON\USERDATA\INSTALL\rory3\rory3.ASF
:FULLY-SPECIFIED
:DEGREES
364
root 3.04035 18.3118 -0.675111 -54.745 81.5818 -64.9249
lowerback 5.47904 -1.07191 6.28111
upperback -4.902 -0.65137 1.71196
thorax -8.33071 -0.598321 -1.63124
lowerneck 18.7054 -4.67367 -8.93176
upperneck -28.7856 -3.62738 17.9464
head -11.9128 -2.82978 9.06838
rclavicle -1.03492e-014 1.15295e-014
rhumerus -13.5911 27.2822 -94.9265
rradius 126.253
rwrist 17.9659
rhand 27.5338 0.209208
rfingers 7.12502
rthumb 51.4766 -20.2022
lclavicle -1.03492e-014 1.15295e-014
lhumerus -19.2415 -37.9659 97.1448
lradius 129.623
lwrist 16.2798
lhand -19.6419 23.7239
lfingers 7.12502
lthumb 6.68548 53.5983
rfemur -14.7241 -7.23948 25.4176
rtibia 16.4297
rfoot 2.45072 0.808189
rtoes -12.3615
lfemur -2.56328 4.99227 -13.6165
ltibia 1.27222e-014
lfoot -9.8637 5.906
ltoes -10.4561
365
root 3.03973 18.31 -0.663596 -53.7115 81.548 -63.9056
lowerback 5.46388 -1.09652 6.28287
upperback -4.90278 -0.680981 1.76082
thorax -8.32446 -0.610712 -1.57692
lowerneck 18.7304 -4.7197 -8.9393
upperneck -28.7487 -3.71594 17.9252
head -11.8878 -2.87076 9.06804
rclavicle -4.22542e-014 -3.37934e-015
rhumerus -13.4858 27.4283 -94.8966
rradius 126.174
rwrist 18.0084
rhand 27.5511 0.105027
rfingers 7.12502
rthumb 51.4924 -20.2974
lclavicle -4.22542e-014 -3.37934e-015
lhumerus -19.3649 -37.778 97.1208
lradius 129.657
lwrist 16.3487
lhand -19.8284 23.6527
lfingers 7.12502
lthumb 6.50547 53.5328
rfemur -14.7913 -7.14136 25.4225
rtibia 16.4779
rfoot 2.4274 0.868348
rtoes -12.5096
lfemur -2.56259 5.13352 -13.6357
ltibia -2.06736e-014
lfoot -9.88381 5.90218
ltoes -10.3525
366
root 3.03975 18.3093 -0.651155 -52.5541 81.6047 -62.7478
lowerback 5.52032 -1.10667 6.21172
upperback -4.94551 -0.693622 1.76578
thorax -8.40326 -0.614974 -1.52868
lowerneck 18.7758 -4.77668 -8.99443
upperneck -28.661 -3.82174 17.9776
head -11.8402 -2.92541 9.10393
rclavicle 1.02623e-014 1.64991e-014
rhumerus -13.5143 27.5382 -94.9016
rradius 126.119
rwrist 17.9978
rhand 27.3901 -0.0196017
rfingers 7.12502
rthumb 51.346 -20.5059
lclavicle 1.02623e-014 1.64991e-014
lhumerus -19.5727 -37.6139 97.2293
lradius 129.713
lwrist 16.3102
lhand -19.89 23.6685
lfingers 7.12502
lthumb 6.44602 53.5504
rfemur -14.8044 -7.00404 25.3144
rtibia 16.4937
rfoot 2.34867 0.891729
rtoes -12.1175
lfemur -2.56834 5.23353 -13.7487
ltibia -9.54166e-015
lfoot -9.80771 5.91698
ltoes -10.694
367
root 3.03992 18.3091 -0.640226 -52.2761 81.5798 -62.4636
lowerback 5.63418 -1.14655 6.3331
upperback -5.00955 -0.719922 1.7812
thorax -8.54566 -0.638276 -1.57337
lowerneck 18.7805 -4.81842 -9.17904
upperneck -28.5128 -3.90567 18.1845
head -11.7544 -2.97494 9.21447
rclavicle 6.02566e-015 3.18055e-015
rhumerus -13.5643 27.6634 -95.0079
rradius 126.059
rwrist 18.0475
rhand 27.2894 -0.0182393
rfingers 7.12502
rthumb 51.2543 -20.5566
lclavicle 6.02566e-015 3.18055e-015
lhumerus -19.8655 -37.4693 97.3103
lradius 129.826
lwrist 16.3067
lhand -19.7591 23.7563
lfingers 7.12502
lthumb 6.57241 53.6344
rfemur -14.7929 -6.95907 25.3538
rtibia 16.5082
rfoot 2.23978 0.982948
rtoes -12.5495
lfemur -2.55632 5.28034 -13.7026
ltibia 9.54166e-015
lfoot -9.8149 5.90952
ltoes -10.6102
368
root 3.04028 18.308 -0.630317 -51.6257 81.5397 -61.7863
lowerback 5.66152 -1.17673 6.42103
upperback -4.99443 -0.749604 1.793
thorax -8.54999 -0.657468 -1.60565
lowerneck 18.683 -4.84241 -9.41359
upperneck -28.3398 -3.95424 18.4585
head -11.6399 -3.00794 9.34778
rclavicle -4.9634e-015 3.37934e-015
rhumerus -13.3996 27.7821 -94.9835
rradius 125.971
rwrist 18.0322
rhand 27.2778 -0.0948576
rfingers 7.12502
rthumb 51.2438 -20.6392
lclavicle -4.9634e-015 3.37934e-015
lhumerus -19.9705 -37.288 97.2349
lradius 129.889
lwrist 16.4149
lhand -19.7509 23.7377
lfingers 7.12502
lthumb 6.5803 53.6155
rfemur -14.7661 -6.87069 25.3652
rtibia 16.5146
rfoot 2.17088 1.05583
rtoes -13.1823
lfemur -2.49884 5.37811 -13.6934
ltibia 4.77083e-015
lfoot -9.82034 5.93496
ltoes -10.9846
369
root 3.03945 18.3042 -0.620774 -50.9066 81.4736 -60.9998
lowerback 5.7041 -1.21274 6.51031
upperback -4.94829 -0.786963 1.81656
thorax -8.5299 -0.679115 -1.62551
lowerneck 18.7192 -4.85315 -9.52888
upperneck -28.3404 -3.96886 18.6081
head -11.6356 -3.0229 9.43409
rclavicle -3.36132e-014 5.62561e-014
rhumerus -13.222 27.9133 -94.9313
rradius 125.876
rwrist 17.9456
rhand 27.5446 -0.0461673
rfingers 7.12502
rthumb 51.4865 -20.452
lclavicle -3.36132e-014 5.62561e-014
lhumerus -20.055 -37.0861 97.1555
lradius 129.95
lwrist 16.4593
lhand -19.7772 23.5632
lfingers 7.12502
lthumb 6.55488 53.4418
rfemur -14.708 -6.88853 25.3986
rtibia 16.5042
rfoot 2.21992 1.19275
rtoes -13.3386
lfemur -2.39552 5.50023 -13.6713
ltibia -4.77083e-015
lfoot -9.8519 5.91463
ltoes -10.9589
370
root 3.03866 18.3022 -0.611352 -50.1012 81.4398 -60.1918
lowerback 5.72714 -1.21524 6.5635
upperback -4.95818 -0.779622 1.84494
thorax -8.55493 -0.678143 -1.62541
lowerneck 18.7991 -4.9036 -9.54162
upperneck -28.3725 -4.05727 18.5959
head -11.6478 -3.06428 9.44923
rclavicle 9.11303e-015 -9.93923e-016
rhumerus -13.2169 28.0661 -94.8869
rradius 125.762
rwrist 17.9999
rhand 27.5165 0.0921666
rfingers 7.12502
rthumb 51.461 -20.3283
lclavicle 9.11303e-015 -9.93923e-016
lhumerus -20.223 -36.976 97.2189
lradius 130.004
lwrist 16.4487
lhand -19.7589 23.4026
lfingers 7.12502
lthumb 6.57254 53.2806
rfemur -14.7202 -6.83251 25.3959
rtibia 16.5023
rfoot 2.19853 1.28259
rtoes -13.6738
lfemur -2.38087 5.61154 -13.6893
ltibia 6.36111e-015
lfoot -9.8147 5.93046
ltoes -11.1466
371
root 3.03748 18.3026 -0.602285 -49.208 81.452 -59.3244
lowerback 5.76309 -1.23032 6.57493
upperback -4.99574 -0.791359 1.86145
thorax -8.61838 -0.685816 -1.61124
lowerneck 18.8363 -4.94335 -9.53109
upperneck -28.3124 -4.13282 18.5748
head -11.6193 -3.102 9.44197
rclavicle 5.22431e-015 -7.95139e-016
rhumerus -13.2188 28.2215 -94.8568
rradius 125.646
rwrist 18.1212
rhand 27.3762 0.220319
rfingers 7.12502
rthumb 51.3333 -20.2731
lclavicle 5.22431e-015 -7.95139e-016
lhumerus -20.3931 -36.9016 97.2758
lradius 130.047
lwrist 16.3316
lhand -19.8167 23.3605
lfingers 7.12502
lthumb 6.51681 53.2402
rfemur -14.772 -6.85845 25.3488
rtibia 16.5125
rfoot 2.22651 1.47158
rtoes -14.5639
lfemur -2.39108 5.70278 -13.7489
ltibia 9.54166e-015
lfoot -9.9069 5.88184
ltoes -10.8234
372
root 3.03722 18.302 -0.591973 -48.3358 81.4524 -58.4371
lowerback 5.77701 -1.29165 6.59099
upperback -4.9929 -0.871245 1.86362
thorax -8.63044 -0.726052 -1.60678
lowerneck 18.8868 -4.92148 -9.55345
upperneck -28.2445 -4.09665 18.6603
head -11.6074 -3.09769 9.47395
rclavicle 2.48481e-016 -4.57205e-015
rhumerus -13.1077 28.46 -94.9021
rradius 125.507
rwrist 18.1651
rhand 27.2525 0.247328
rfingers 7.12502
rthumb 51.2207 -20.31
lclavicle 2.48481e-016 -4.57205e-015
lhumerus -20.509 -36.7891 97.2063
lradius 130.08
lwrist 16.253
lhand -19.9816 23.4869
lfingers 7.12502
lthumb 6.3576 53.3715
rfemur -14.7583 -6.84399 25.3015
rtibia 16.4958
rfoot 2.2427 1.61388
rtoes -14.809
lfemur -2.33111 5.7988 -13.7891
ltibia 3.18055e-015
lfoot -10.0244 5.80804
ltoes -10.3132
373
root 3.03617 18.2999 -0.581028 -47.2177 81.4326 -57.3198
lowerback 5.80614 -1.29349 6.60327
upperback -5.00616 -0.871448 1.84046
thorax -8.66293 -0.728946 -1.63729
lowerneck 18.9466 -4.93416 -9.60515
upperneck -28.197 -4.09412 18.8245
head -11.5949 -3.11477 9.54946
rclavicle -1.42876e-016 2.127e-014
rhumerus -12.9776 28.5358 -94.9118
rradius 125.354
rwrist 18.1042
rhand 27.2006 0.248199
rfingers 7.12502
rthumb 51.1735 -20.3359
lclavicle -1.42876e-016 2.127e-014
lhumerus -20.6983 -36.7567 97.1918
lradius 130.172
lwrist 16.282
lhand -20.0897 23.5834
lfingers 7.12502
lthumb 6.25324 53.4711
rfemur -14.7541 -6.7867 25.2478
rtibia 16.4517
rfoot 2.24531 1.66745
rtoes -14.2077
lfemur -2.28898 5.93346 -13.8468
ltibia 4.77083e-015
lfoot -10.0597 5.73161
ltoes -10.3379
